<svg width="97" height="128" viewBox="0 0 97 128" fill="none" xmlns="http://www.w3.org/2000/svg">
<g clip-path="url(#clip0_36_854)">
<path d="M96.6951 41.8826C96.4311 43.7685 96.1544 45.6519 95.9007 47.5378C94.7835 55.9194 92.9283 64.1473 90.7042 72.2958C90.6837 72.3676 90.5965 72.4188 90.5273 72.4957C88.5492 70.6431 86.5531 68.8084 84.6184 66.9147C84.4032 66.7046 84.4442 66.1255 84.5185 65.7488C85.8074 59.0994 87.3551 52.4909 88.3647 45.7979C89.5793 37.7571 89.9329 29.6496 87.9982 21.6293C87.6216 20.0637 87.104 18.5083 86.4531 17.0349C83.1809 9.63209 74.8992 5.82948 67.4657 8.26377C64.2319 9.32204 61.9078 11.5283 60.0603 14.288C57.0443 18.8004 55.5095 23.8919 54.382 29.1269C52.8036 36.458 52.0707 43.871 52.3167 51.3737C52.3423 52.1732 52.3193 52.9752 52.3193 53.7901H44.6961C44.6961 53.2263 44.6807 52.6114 44.6961 51.9964C44.9344 42.9408 43.9453 34.0211 41.6186 25.2653C40.6065 21.4576 39.2177 17.7908 37.0191 14.4879C34.9538 11.3848 32.3965 8.74806 28.599 8.05109C21.2347 6.69813 13.4245 9.11961 10.0626 17.983C8.45339 22.2212 7.85891 26.6414 7.72823 31.1435C7.4028 42.2464 9.35279 53.0624 11.9921 63.7707C12.502 65.8437 12.4866 67.2812 10.5571 68.6111C9.03506 69.6616 7.83585 71.1812 6.34709 72.634C5.89098 70.9403 5.42462 69.3003 5.00695 67.6476C2.93396 59.4069 1.2274 51.0944 0.481734 42.6257C-0.292113 33.8315 -0.44842 25.0424 2.46248 16.5301C5.32981 8.13821 10.7672 2.44197 19.7229 0.622664C30.8412 -1.63738 39.1895 2.23442 44.5885 12.3175C46.09 15.1208 47.2201 18.1265 48.5653 21.1373C48.7165 20.7504 48.9061 20.3173 49.0573 19.874C50.3052 16.1816 51.8888 12.6532 54.1104 9.42966C58.6049 2.90833 64.6931 -0.32799 72.716 0.0563714C84.4467 0.617539 92.3979 7.35411 95.3754 19.5204C95.8982 21.6575 96.2594 23.833 96.6976 25.9931C96.6976 31.2896 96.6976 36.5861 96.6976 41.8851L96.6951 41.8826Z" fill="#BB474F"/>
<path d="M84.1393 128C86.1149 123.764 87.5934 119.383 88.0879 114.706C89.3768 102.458 85.9611 91.6907 77.5513 82.712C69.1389 73.7333 58.5997 69.5694 46.313 70.0819C29.2397 70.7942 13.8985 83.473 9.80122 100.067C7.54117 109.225 8.3637 118.083 12.2355 126.673C12.4251 127.09 12.5148 127.554 12.6506 127.997H4.45091C-6.75451 100.062 9.66285 69.4695 39.1844 63.271C64.0192 58.0591 89.4614 74.5635 94.8604 99.3805C96.9103 108.797 96.2876 118.012 92.8745 127.031C92.7566 127.344 92.6875 127.675 92.5952 127.997H84.1393V128Z" fill="#BB474F"/>
<path d="M48.4987 103.437C46.0286 103.442 44.1887 101.643 44.1682 99.1985C44.1477 96.713 46.0516 94.7963 48.5218 94.8117C50.8946 94.8271 52.8292 96.777 52.8343 99.1524C52.8394 101.525 50.9099 103.432 48.4987 103.434V103.437Z" fill="#392B35"/>
</g>
<defs>
<clipPath id="clip0_36_854">
<rect width="96.6951" height="128" fill="white"/>
</clipPath>
</defs>
</svg>
